<svg width="511.27231" height="337.19846" xmlns="http://www.w3.org/2000/svg">

 <g>
  <title>background</title>
  <rect fill="none" id="canvas_background" height="339.19846" width="513.27231" y="-1" x="-1"/>
 </g>
 <g>
  <title>Layer 1</title>
  <path id="svg_20" fill="#535461" d="m79.22924,34.00634l0,-7.22263s31.517,-17.72829 57.12448,0l0,6.566l-57.12448,0.65663z"/>
  <path id="svg_21" fill="#535461" d="m366.16487,34.00634l0,-7.22263s31.51695,-17.72829 57.12448,0l0,6.566l-57.12448,0.65663z"/>
  <path id="svg_22" fill="#e6e6e6" d="m173.78015,33.34974l-30.8604,0s-7.87924,-9.19244 -34.14336,-8.53584s-31.517,8.53584 -31.517,8.53584s-25.93583,17.4 -31.84526,39.06789c0,0 -31.84525,95.53577 -32.50185,170.38854s28.23393,85.35842 43.33581,87.32823s42.0226,-0.65661 68.28673,-66.97353l11.16233,-38.73959s1.96981,-22.98111 25.60752,-8.53584s44.649,-7.87924 44.649,-7.87924l88.64144,0s29.54714,18.38489 56.46787,3.93962c0,0 10.50565,-13.78867 20.3547,32.83016c0,0 30.20375,95.86407 76.82258,86.015s41.366,-89.95464 41.366,-89.95464s-6.23773,-122.4565 -31.84525,-165.79231c0,0 -24.62262,-44.97733 -41.0377,-46.94713c0,0 -35.45658,-6.566 -49.24525,-0.65661l-7.87923,6.566l-185.81868,-0.65655z"/>
  <circle id="svg_23" fill="#535461" r="57.12448" cy="97.69685" cx="102.21036"/>
  <circle id="svg_24" fill="#535461" r="57.12448" cy="97.69685" cx="400.30822"/>
  <path id="svg_25" fill="#e6e6e6" d="m112.16446,84.95876l-7.6166,6.73675a3.53249,3.53249 0 0 1 -4.66844,0l-7.62973,-6.73675a3.526,3.526 0 0 1 -1.195,-2.62641l0,-18.53592a3.53255,3.53255 0 0 1 3.53253,-3.526l15.266,0a3.526,3.526 0 0 1 3.53253,3.51939l0,18.52941a3.52593,3.52593 0 0 1 -1.22129,2.63953z"/>
  <path id="svg_26" fill="#e6e6e6" d="m112.16446,110.4284l-7.6166,-6.73018a3.53252,3.53252 0 0 0 -4.66844,0l-7.62973,6.73676a3.526,3.526 0 0 0 -1.195,2.62641l0,18.51622a3.526,3.526 0 0 0 3.51938,3.53253l15.27917,0a3.526,3.526 0 0 0 3.53253,-3.51939l0,-18.52279a3.526,3.526 0 0 0 -1.22131,-2.63956z"/>
  <path id="svg_27" fill="#e6e6e6" d="m89.47883,107.66409l6.73675,-7.62973a3.53249,3.53249 0 0 0 0,-4.66844l-6.73675,-7.62972a3.53252,3.53252 0 0 0 -2.62642,-1.195l-18.51621,0a3.53255,3.53255 0 0 0 -3.526,3.53253l0,15.266a3.526,3.526 0 0 0 3.51938,3.53253l18.52937,0a3.526,3.526 0 0 0 2.61988,-1.20817z"/>
  <path id="svg_28" fill="#e6e6e6" d="m114.94845,107.66409l-6.72361,-7.63628a3.526,3.526 0 0 1 0,-4.66844l6.73676,-7.62973a3.526,3.526 0 0 1 2.62641,-1.195l18.51622,0a3.526,3.526 0 0 1 3.53253,3.51939l0,15.2792a3.526,3.526 0 0 1 -3.51939,3.53252l-18.52279,0a3.5259,3.5259 0 0 1 -2.64613,-1.20166z"/>
  <circle id="svg_29" fill="#535461" r="41.366" cy="160.07416" cx="179.68954"/>
  <circle id="svg_30" fill="#535461" r="41.366" cy="160.07416" cx="322.82904"/>
  <circle id="svg_31" fill="#e6e6e6" r="27.57734" cy="160.07416" cx="179.68954"/>
  <path id="svg_32" fill="#535461" d="m179.68967,179.11555a19.0415,19.0415 0 1 1 19.04148,-19.04149a19.0632,19.0632 0 0 1 -19.04148,19.04149zm0,-36.76978a17.72829,17.72829 0 1 0 17.72829,17.72829a17.7485,17.7485 0 0 0 -17.72829,-17.72829z"/>
  <circle id="svg_33" fill="#e6e6e6" r="27.57734" cy="160.07416" cx="322.82904"/>
  <path id="svg_34" fill="#535461" d="m322.82915,179.11555a19.0415,19.0415 0 1 1 19.04149,-19.04149a19.06341,19.06341 0 0 1 -19.04149,19.04149zm0,-36.76978a17.72829,17.72829 0 1 0 17.72829,17.72829a17.7485,17.7485 0 0 0 -17.72829,-17.72829z"/>
  <circle id="svg_35" fill="#535461" r="11.81886" cy="164.67038" cx="252.57249"/>
  <circle id="svg_36" fill="#535461" r="2.58045" cy="125.22167" cx="234.50935"/>
  <circle id="svg_37" fill="#535461" r="2.58045" cy="125.22167" cx="244.17455"/>
  <circle id="svg_38" fill="#535461" r="2.58045" cy="137.46731" cx="242.8876"/>
  <circle id="svg_39" fill="#535461" r="2.62641" cy="137.74965" cx="251.91589"/>
  <circle id="svg_40" fill="#535461" r="2.58045" cy="137.46731" cx="260.93106"/>
  <circle id="svg_41" fill="#535461" r="2.58045" cy="131.66952" cx="239.02021"/>
  <circle id="svg_42" fill="#535461" r="2.62641" cy="131.84022" cx="247.31967"/>
  <circle id="svg_43" fill="#535461" r="2.62641" cy="131.84022" cx="255.85551"/>
  <circle id="svg_44" fill="#535461" r="2.58045" cy="131.66952" cx="264.79844"/>
  <circle id="svg_45" fill="#535461" r="2.62641" cy="125.27419" cx="251.91589"/>
  <circle id="svg_46" fill="#535461" r="2.62641" cy="125.27419" cx="261.10833"/>
  <circle id="svg_47" fill="#535461" r="2.58045" cy="125.22167" cx="268.66584"/>
  <path id="svg_48" fill="#535461" d="m154.41008,38.94591a4.58609,4.58609 0 0 0 -4.58106,4.58105l0,13.78907a4.58609,4.58609 0 0 0 4.58106,4.58105l3.2832,0a4.58608,4.58608 0 0 0 4.58105,-4.58105l0,-13.78907a4.58608,4.58608 0 0 0 -4.58105,-4.58105l-3.2832,0z"/>
  <path id="svg_49" fill="#535461" d="m346.13815,38.94591a4.58578,4.58578 0 0 0 -4.58105,4.58105l0,13.78907a4.58578,4.58578 0 0 0 4.58105,4.58105l3.28321,0a4.58578,4.58578 0 0 0 4.58105,-4.58105l0,-13.78907a4.58578,4.58578 0 0 0 -4.58105,-4.58105l-3.28321,0z"/>
  <circle id="svg_50" fill="#e6e6e6" r="15.75848" cy="62.89688" cx="400.96482"/>
  <circle id="svg_51" fill="#e6e6e6" r="15.75848" cy="96.38365" cx="367.47806"/>
  <circle id="svg_52" fill="#e6e6e6" r="15.75848" cy="94.41384" cx="435.76479"/>
  <circle id="svg_53" fill="#e6e6e6" r="15.75848" cy="129.21381" cx="403.59123"/>
  <path id="svg_54" fill="#535461" d="m184.1215,29.75353a13.29637,13.29637 0 0 0 -13.28125,13.28125l0,58.76562a13.29638,13.29638 0 0 0 13.28125,13.28125l134.93165,0a13.29638,13.29638 0 0 0 13.28125,-13.28125l0,-58.76562a13.29637,13.29637 0 0 0 -13.28125,-13.28125l-134.93165,0z"/>
  <path id="svg_55" fill="#535461" d="m411.67066,70.11942l-21.36974,0l10.3165,-17.685l11.05324,17.685zm-19.08317,-1.31319l16.71325,0l-8.64485,-13.832l-8.0684,13.832z"/>
  <path id="svg_56" fill="#535461" d="m376.34233,104.26278l-17.72828,0l0,-15.75847l17.72828,0l0,15.75847zm-16.41508,-1.3132l15.1019,0l0,-13.13207l-15.1019,0l0,13.13207z"/>
  <path id="svg_57" fill="#535461" d="m435.76493,104.26278a9.849,9.849 0 1 1 9.849,-9.84905a9.86,9.86 0 0 1 -9.849,9.84905zm0,-18.38489a8.53585,8.53585 0 1 0 8.53584,8.53584a8.54552,8.54552 0 0 0 -8.53584,-8.53584z"/>
  <rect id="svg_58" fill="#535461" transform="rotate(-45 -569.4849243164064,325.56072998046864) " height="20.89299" width="1.31307" y="864.22871" x="256.64961"/>
  <rect id="svg_59" fill="#535461" transform="rotate(-43.73400115966797 -573.4265136718751,304.0851440429688) " height="1.31339" width="20.89814" y="852.37877" x="243.07964"/>
 </g>
</svg>