<svg width="691.00528" height="491.59399" xmlns="http://www.w3.org/2000/svg">
 <title>phone_call</title>

 <g>
  <title>background</title>
  <rect fill="none" id="canvas_background" height="493.59399" width="693.00528" y="-1" x="-1"/>
 </g>
 <g>
  <title>Layer 1</title>
  <circle id="svg_6" fill="#f2f2f2" r="16.80326" cy="142.64958" cx="148.77064"/>
  <path id="svg_7" fill="#f2f2f2" d="m206.5718,292.19179s-26.13457,-36.19584 15.4785,-78.28893l-15.4785,78.28893z"/>
  <path id="svg_8" fill="#f2f2f2" d="m186.31817,296.36465s-17.86209,-40.91578 -75.27249,-26.51021l75.27249,26.51021z"/>
  <circle id="svg_10" fill="#f2f2f2" r="25.14552" cy="-49.84901" cx="381.90435"/>
  <circle id="svg_11" fill="#f2f2f2" r="25.14552" cy="68.72658" cx="411.04756"/>
  <circle id="svg_12" fill="#f2f2f2" r="25.14552" cy="99.69564" cx="334.85454"/>
  <circle id="svg_13" fill="#f2f2f2" r="25.14552" cy="175.89844" cx="370.14875"/>
  <circle id="svg_14" fill="#f2f2f2" r="25.14552" cy="206.24551" cx="605.61664"/>
  <path id="svg_15" fill="#f2f2f2" d="m526.38673,432.70551s5.3407,-66.59559 93.59136,-74.18146l-93.59136,74.18146z"/>
  <path id="svg_16" fill="#f2f2f2" d="m499.26219,417.80981s19.34526,-63.9473 -60.04172,-103.23384l60.04172,103.23384z"/>
  <path id="svg_22" fill="#3f3d56" d="m346.0503,134s-10,-10 -33,-8c0,0 -222,-23 -227,18s-6,65 7,74c0,0 42.5,38.5 20.5,72.5l-12,20l471,-4s5,-73 20,-87s20,-88 0,-90s-252,-13 -246.5,4.5z"/>
  <path id="svg_23" fill="#3f3d56" d="m97.5503,215.5s-141,33 -85,95l9,9l-4,138l650,0l7,-135l8,-16s49.81889,-59.75012 -94.09056,-81.37506l-25.90944,65.37506l-438,-3s-3,-74 -27,-72z"/>
  <rect id="svg_24" fill="#3f3d56" height="31" width="41" y="448.5" x="29.5503"/>
  <rect id="svg_25" fill="#3f3d56" height="31" width="41" y="448.5" x="619.5503"/>
  <path id="svg_26" fill="#3f3d56" d="m338.444,291s-97.8937,-69.5 -219.8937,0.5l-36,52l7,43s253,4 256,-23s-7.1063,-72.5 -7.1063,-72.5z"/>
  <path id="svg_27" fill="#3f3d56" d="m567.5503,291.5s-171.75244,-55 -223.37622,0l6.37622,79s251,19 255,6s6,-36 6,-36l-44,-49z"/>
  <path fill="#7fab96" id="svg_28" opacity="0.1" d="m573.5503,294.5s-171.75245,-55 -223.37623,0l0.14222,1.76209c-0.16944,-0.81757 -0.266,-1.26209 -0.266,-1.26209s-103.5,-70.5 -225.5,-0.5l-36,52l7,43s244.98413,5.21125 260.72363,-19.42468l0.27637,3.42468s251,19 255,6s6,-36 6,-36l-43.99999,-49z"/>
  <path id="svg_29" fill="#7fab96" d="m101.5503,153.5c48.603,-1.03375 94.67907,-7.20208 137,-21c1.02941,48.6807 8.02856,94.2092 24,135c-47.31458,-8.598 -95.33558,-0.0896 -144,24c8.74034,-44.00607 1.18383,-90.26761 -17,-138z"/>
  <path id="svg_30" fill="#7fab96" d="m598.5503,161.5c-48.603,-1.03375 -94.67908,-7.20208 -137,-21c-1.02942,48.6807 -8.02857,94.2092 -24,135c47.31457,-8.598 95.33557,-0.0896 144,24c-8.74036,-44.00607 -1.18384,-90.26761 17,-138z"/>
  <rect id="svg_50" fill="#464353" rx="0.16767" height="5.24533" width="0.59606" y="9.02858" x="453.02393"/>
 </g>
</svg>