<svg width="844.67538" height="595.26155" xmlns="http://www.w3.org/2000/svg">

 <g>
  <title>background</title>
  <rect fill="none" id="canvas_background" height="602" width="802" y="-1" x="-1"/>
 </g>
 <g>
  <title>Layer 1</title>
  <circle id="svg_1" fill="#7fab96" r="46" cy="548" cx="431.39281"/>
  <path id="svg_2" fill="#f2f2f2" d="m706.19945,591.41565c25.7345,-7.72868 53.09381,-15.78786 73.50313,-34.161c18.23763,-16.41813 30.55024,-41.48912 22.99475,-66.1115c-7.54,-24.57187 -30.12421,-40.95629 -53.44165,-49.10532c-13.225,-4.62188 -27.06087,-7.18608 -40.89147,-9.20037c-15.03485,-2.18967 -30.13615,-3.98373 -45.23026,-5.71012q-91.67724,-10.48563 -184.04386,-12.811c-30.38456,-0.76525 -60.76358,-0.74682 -91.15243,-0.3057c-27.13937,0.394 -55.72215,0.38417 -80.899,-11.15051c-19.57846,-8.96979 -37.348,-25.28881 -42.8033,-46.73352c-6.29728,-24.75467 5.318,-49.96382 21.97993,-67.892c8.78265,-9.45011 19.04731,-17.40385 29.63621,-24.71743c11.4874,-7.93416 23.37539,-15.30643 35.52084,-22.18813a494.63414,494.63414 0 0 1 74.7667,-34.4685c12.74555,-4.63445 25.68047,-8.63281 38.72759,-12.32143c11.017,-3.11469 22.06832,-6.23382 32.71588,-10.47748c20.58349,-8.20371 40.161,-22.09985 45.39464,-44.88142c4.96024,-21.59145 -3.40305,-45.03067 -18.065,-61.07057c-16.96282,-18.557 -42.53949,-26.69181 -67.06007,-28.008c-27.52842,-1.47765 -54.42246,5.412 -80.29678,14.15585c-27.59673,9.326 -54.59854,20.04924 -82.77827,27.60322a556.95783,556.95783 0 0 1 -85.19574,15.83655c-14.08227,1.49951 -28.59019,3.19273 -42.75626,2.04475c-11.87246,-0.96211 -23.68426,-4.45375 -32.43408,-12.87964c-7.50252,-7.22477 -11.97184,-17.154 -10.4353,-27.63238c0.27909,-1.90318 3.17022,-1.09407 2.89284,0.79752c-1.8704,12.75513 6.79991,24.50863 17.48415,30.5293c12.34817,6.95832 27.37408,6.9678 41.1218,6.172a537.82528,537.82528 0 0 0 88.51452,-12.79561c28.59252,-6.53059 56.16382,-15.86633 83.70391,-25.83908c26.15594,-9.47153 52.89665,-18.71579 80.84009,-20.76729c24.24611,-1.78007 49.75165,1.75222 70.87426,14.42313c18.56387,11.136 32.21482,29.70722 36.56451,51.01813c4.25044,20.82462 -1.63632,41.785 -17.4,56.31714c-16.32147,15.04633 -38.7007,21.47909 -59.55655,27.40368c-26.45223,7.51437 -52.33726,16.29809 -77.39248,27.7031a485.82354,485.82354 0 0 0 -72.8001,40.92805c-22.24625,15.20228 -44.2007,34.33058 -51.23658,61.45126c-3.27739,12.63313 -2.67227,26.03212 2.8116,37.96461c4.87605,10.60993 12.90656,19.53469 22.26169,26.41853c22.32074,16.42443 50.45266,19.79665 77.41421,20.13212c30.28143,0.37678 60.56382,-0.64518 90.85508,-0.148q92.5988,1.51977 184.81863,11.27265q23.108,2.44594 46.15759,5.40711c13.82158,1.776 27.68967,3.54058 41.27849,6.69464c24.16222,5.60822 47.67389,16.39167 62.69178,36.878a61.31938,61.31938 0 0 1 11.94709,30.44593c1.05134,11.52384 -1.76985,23.0693 -6.98016,33.32083c-11.53233,22.69042 -33.13363,37.12286 -56.07337,46.60471c-12.28683,5.0786 -25.03167,8.926 -37.7516,12.74609c-1.853,0.55651 -2.64487,-2.338 -0.79752,-2.89283l-0.00008,-0.00007z"/>
  <circle id="svg_3" fill="#f2f2f2" r="24" cy="69.5" cx="125.89281"/>
  <circle id="svg_4" fill="#f2f2f2" r="24" cy="115" cx="292.39281"/>
  <circle id="svg_5" fill="#f2f2f2" r="24" cy="24" cx="433.39281"/>
  <circle id="svg_6" fill="#f2f2f2" r="24" cy="126" cx="521.39281"/>
  <circle id="svg_7" fill="#f2f2f2" r="24" cy="244" cx="402.39281"/>
  <circle id="svg_8" fill="#f2f2f2" r="24" cy="301" cx="251.39281"/>
  <circle id="svg_9" fill="#f2f2f2" r="24" cy="390" cx="411.39281"/>
  <circle id="svg_10" fill="#f2f2f2" r="24" cy="440" cx="583.39281"/>
  <circle id="svg_11" fill="#f2f2f2" r="24" cy="429" cx="784.39281"/>
  <path id="svg_12" fill="#7fab96" d="m426.46532,68.00342c-71.89185,0.50782 -130.75611,58.92987 -131.77735,130.81635c-0.00946,0.66369 -0.01381,5.33048 -0.01324,11.43422a33.74778,33.74778 0 0 0 33.74387,33.746l0.00007,0a33.76855,33.76855 0 0 0 33.76114,-33.79775c-0.00343,-4.15211 -0.00551,-7.02584 -0.00551,-7.20227a64.00037,64.00037 0 1 1 98.52027,53.8794l0.01171,0.01422s-48.02832,30.91956 -62.67089,73.33545l0.01245,0.003a94.00389,94.00389 0 0 0 -3.87354,26.76794c0,3.72538 0.21916,36.32138 0.64261,62.77767a34.78649,34.78649 0 0 0 34.79009,34.22233l0.00007,0a34.79588,34.79588 0 0 0 34.79384,-35.01061c-0.14706,-24.22912 -0.22661,-52.44168 -0.22661,-54.48939c0,-26.04473 25.12525,-51.99475 45.76367,-68.91741c23.76587,-19.48694 40.86792,-46.04291 47.73706,-75.99909a86.7618,86.7618 0 0 0 2.49927,-18.8335a132.75,132.75 0 0 0 -133.70898,-132.74656z"/>
  <path id="svg_13" fill="#3f3d56" d="m843.48469,595.26156l-842.294,0a1.19069,1.19069 0 0 1 0,-2.38137l842.294,0a1.19068,1.19068 0 0 1 0,2.38137z"/>
  <path id="svg_29" fill="#3f3d56" d="m337.94652,228.03833l0,0a33.748,33.748 0 0 1 -33.74414,-33.746c-0.00049,-6.10376 0.0039,-10.77051 0.01318,-11.4342a131.50724,131.50724 0 0 1 15.35889,-59.90875a131.80321,131.80321 0 0 0 -25.35889,75.90875c-0.00928,0.66369 -0.01367,5.33044 -0.01318,11.4342a33.748,33.748 0 0 0 33.74414,33.746l0,0a33.77281,33.77281 0 0 0 32.48779,-24.59055a33.62247,33.62247 0 0 1 -22.48779,8.59055z"/>
  <path id="svg_30" fill="#3f3d56" d="m428.75269,139.10926a64.00385,64.00385 0 0 1 55.65918,89.413a63.9972,63.9972 0 1 0 -107.42578,-66.98523a63.87073,63.87073 0 0 1 51.7666,-22.42777z"/>
  <path id="svg_31" fill="#3f3d56" d="m439.13451,438.03833l0,0a34.78682,34.78682 0 0 1 -34.79,-34.22235c-0.42334,-26.45629 -0.64258,-59.0523 -0.64258,-62.77765a94.00389,94.00389 0 0 1 3.87354,-26.76794l-0.01221,-0.003a95.069,95.069 0 0 1 5.49414,-12.70087a110.04745,110.04745 0 0 0 -15.49414,28.70087l0.01221,0.003a94.00389,94.00389 0 0 0 -3.87354,26.76794c0,3.72535 0.21924,36.32136 0.64258,62.77765a34.78682,34.78682 0 0 0 34.79,34.22235l0,0a34.80287,34.80287 0 0 0 33.40185,-25.04846a34.66005,34.66005 0 0 1 -23.40185,9.04846z"/>
  <path id="svg_35" fill="#2f2e41" transform="rotate(179.99737548828125 652.8953857421876,2064.3002929687505) " d="m633.63008,2056.8569l38.5307,0a0,0 0 0 1 0,0l0,14.88687a0,0 0 0 1 0,0l-23.64387,0a14.88686,14.88686 0 0 1 -14.88683,-14.88686l0,0a0,0 0 0 1 0,-0.00001z"/>
  <path id="svg_45" fill="#3f3d56" d="m421.25812,582.78a45.99375,45.99375 0 0 1 -17.07033,-71.4888a45.99715,45.99715 0 1 0 62.56892,66.464a45.96919,45.96919 0 0 1 -45.49859,5.0248z"/>
 </g>
</svg>